<mxfile host="app.diagrams.net" modified="2024-03-17T20:00:06.663Z" agent="Mozilla/5.0 (Windows NT 10.0; Win64; x64) AppleWebKit/537.36 (KHTML, like Gecko) Chrome/122.0.0.0 Safari/537.36" etag="hRhzdTray5P0PEMc-v7_" version="21.3.2" type="github">
  <diagram name="Page-1" id="_4y1oy984aAQIxDl82Cd">
    <mxGraphModel dx="2573" dy="1787" grid="1" gridSize="10" guides="1" tooltips="1" connect="1" arrows="1" fold="1" page="1" pageScale="1" pageWidth="850" pageHeight="1100" background="#ffffff" math="0" shadow="0">
      <root>
        <mxCell id="0" />
        <mxCell id="1" parent="0" />
        <mxCell id="415RkFyy65SHp_sG8Toa-2" style="edgeStyle=orthogonalEdgeStyle;rounded=0;orthogonalLoop=1;jettySize=auto;html=1;entryX=1;entryY=0.75;entryDx=0;entryDy=0;strokeWidth=3;" parent="1" target="hfHN6D2mF1iG0yMVnGWX-6" edge="1">
          <mxGeometry relative="1" as="geometry">
            <mxPoint x="350" y="275" as="sourcePoint" />
          </mxGeometry>
        </mxCell>
        <mxCell id="hfHN6D2mF1iG0yMVnGWX-2" value="0&#xa;&#xa;Dental Clinic&#xa;Management&#xa;System&#xa;" style="swimlane;fontStyle=0;childLayout=stackLayout;horizontal=1;startSize=40;fillColor=#ffffff;horizontalStack=0;resizeParent=1;resizeParentMax=0;resizeLast=0;collapsible=0;marginBottom=0;swimlaneFillColor=#ffffff;rounded=1;fontSize=19;fontFamily=Georgia;verticalAlign=top;" parent="1" vertex="1">
          <mxGeometry x="350" y="210" width="150" height="140" as="geometry" />
        </mxCell>
        <mxCell id="hfHN6D2mF1iG0yMVnGWX-3" value="Administrator" style="html=1;dashed=0;whiteSpace=wrap;rounded=0;fontSize=19;fontFamily=Georgia;" parent="1" vertex="1">
          <mxGeometry x="330" y="-20" width="180" height="60" as="geometry" />
        </mxCell>
        <mxCell id="415RkFyy65SHp_sG8Toa-1" style="edgeStyle=orthogonalEdgeStyle;rounded=0;orthogonalLoop=1;jettySize=auto;html=1;exitX=1;exitY=0.25;exitDx=0;exitDy=0;entryX=0;entryY=0.25;entryDx=0;entryDy=0;strokeWidth=3;" parent="1" source="hfHN6D2mF1iG0yMVnGWX-6" target="hfHN6D2mF1iG0yMVnGWX-2" edge="1">
          <mxGeometry relative="1" as="geometry" />
        </mxCell>
        <mxCell id="hfHN6D2mF1iG0yMVnGWX-6" value="Patient" style="html=1;dashed=0;whiteSpace=wrap;rounded=0;fontSize=19;fontFamily=Georgia;" parent="1" vertex="1">
          <mxGeometry x="-30" y="230" width="180" height="60" as="geometry" />
        </mxCell>
        <mxCell id="hfHN6D2mF1iG0yMVnGWX-7" value="Receptionist" style="html=1;dashed=0;whiteSpace=wrap;rounded=0;fontSize=19;fontFamily=Georgia;" parent="1" vertex="1">
          <mxGeometry x="335" y="500" width="180" height="60" as="geometry" />
        </mxCell>
        <mxCell id="hfHN6D2mF1iG0yMVnGWX-8" value="Dentist" style="html=1;dashed=0;whiteSpace=wrap;rounded=0;fontSize=19;fontFamily=Georgia;" parent="1" vertex="1">
          <mxGeometry x="690" y="230" width="180" height="60" as="geometry" />
        </mxCell>
        <mxCell id="415RkFyy65SHp_sG8Toa-3" value="&lt;font style=&quot;font-size: 19px;&quot;&gt;Reserve&lt;/font&gt;" style="text;html=1;align=center;verticalAlign=middle;resizable=0;points=[];autosize=1;strokeColor=none;fillColor=none;" parent="1" vertex="1">
          <mxGeometry x="230" y="190" width="90" height="40" as="geometry" />
        </mxCell>
        <mxCell id="415RkFyy65SHp_sG8Toa-4" value="&lt;font style=&quot;font-size: 19px;&quot;&gt;Schedule Report&lt;/font&gt;" style="text;html=1;align=center;verticalAlign=middle;resizable=0;points=[];autosize=1;strokeColor=none;fillColor=none;" parent="1" vertex="1">
          <mxGeometry x="170" y="290" width="170" height="40" as="geometry" />
        </mxCell>
        <mxCell id="y_QdQkSx3A7HoJusCJNv-8" style="edgeStyle=orthogonalEdgeStyle;rounded=0;orthogonalLoop=1;jettySize=auto;html=1;exitX=0.817;exitY=0.976;exitDx=0;exitDy=0;strokeWidth=3;exitPerimeter=0;" edge="1" parent="1" source="hfHN6D2mF1iG0yMVnGWX-3">
          <mxGeometry relative="1" as="geometry">
            <mxPoint x="70" y="255" as="sourcePoint" />
            <mxPoint x="476" y="210" as="targetPoint" />
          </mxGeometry>
        </mxCell>
        <mxCell id="y_QdQkSx3A7HoJusCJNv-9" style="edgeStyle=orthogonalEdgeStyle;rounded=0;orthogonalLoop=1;jettySize=auto;html=1;entryX=0.25;entryY=1;entryDx=0;entryDy=0;strokeWidth=3;exitX=0.173;exitY=-0.026;exitDx=0;exitDy=0;exitPerimeter=0;" edge="1" parent="1" source="hfHN6D2mF1iG0yMVnGWX-2" target="hfHN6D2mF1iG0yMVnGWX-3">
          <mxGeometry relative="1" as="geometry">
            <mxPoint x="360" y="285" as="sourcePoint" />
            <mxPoint x="70" y="285" as="targetPoint" />
          </mxGeometry>
        </mxCell>
        <mxCell id="y_QdQkSx3A7HoJusCJNv-12" style="edgeStyle=orthogonalEdgeStyle;rounded=0;orthogonalLoop=1;jettySize=auto;html=1;entryX=0.75;entryY=0;entryDx=0;entryDy=0;strokeWidth=3;" edge="1" parent="1" target="hfHN6D2mF1iG0yMVnGWX-7">
          <mxGeometry relative="1" as="geometry">
            <mxPoint x="470" y="350" as="sourcePoint" />
            <mxPoint x="385" y="-40" as="targetPoint" />
          </mxGeometry>
        </mxCell>
        <mxCell id="y_QdQkSx3A7HoJusCJNv-14" style="edgeStyle=orthogonalEdgeStyle;rounded=0;orthogonalLoop=1;jettySize=auto;html=1;entryX=0.25;entryY=1;entryDx=0;entryDy=0;strokeWidth=3;" edge="1" parent="1" target="hfHN6D2mF1iG0yMVnGWX-2">
          <mxGeometry relative="1" as="geometry">
            <mxPoint x="388" y="500" as="sourcePoint" />
            <mxPoint x="360" y="255" as="targetPoint" />
          </mxGeometry>
        </mxCell>
        <mxCell id="y_QdQkSx3A7HoJusCJNv-15" style="edgeStyle=orthogonalEdgeStyle;rounded=0;orthogonalLoop=1;jettySize=auto;html=1;exitX=0;exitY=0.25;exitDx=0;exitDy=0;entryX=1;entryY=0.25;entryDx=0;entryDy=0;strokeWidth=3;" edge="1" parent="1" source="hfHN6D2mF1iG0yMVnGWX-8" target="hfHN6D2mF1iG0yMVnGWX-2">
          <mxGeometry relative="1" as="geometry">
            <mxPoint x="70" y="255" as="sourcePoint" />
            <mxPoint x="360" y="255" as="targetPoint" />
          </mxGeometry>
        </mxCell>
        <mxCell id="y_QdQkSx3A7HoJusCJNv-16" style="edgeStyle=orthogonalEdgeStyle;rounded=0;orthogonalLoop=1;jettySize=auto;html=1;entryX=0;entryY=0.75;entryDx=0;entryDy=0;strokeWidth=3;" edge="1" parent="1" target="hfHN6D2mF1iG0yMVnGWX-8">
          <mxGeometry relative="1" as="geometry">
            <mxPoint x="500" y="275" as="sourcePoint" />
            <mxPoint x="70" y="285" as="targetPoint" />
          </mxGeometry>
        </mxCell>
        <mxCell id="y_QdQkSx3A7HoJusCJNv-17" value="&lt;span style=&quot;font-size: 19px;&quot;&gt;Create&lt;br&gt;&amp;nbsp;Faculty&lt;br&gt;&amp;nbsp;accounts&lt;br&gt;&lt;br&gt;&lt;/span&gt;" style="text;html=1;align=center;verticalAlign=middle;resizable=0;points=[];autosize=1;strokeColor=none;fillColor=none;" vertex="1" parent="1">
          <mxGeometry x="480" y="70" width="100" height="100" as="geometry" />
        </mxCell>
        <mxCell id="y_QdQkSx3A7HoJusCJNv-18" value="&lt;span style=&quot;font-size: 19px;&quot;&gt;report&lt;br&gt;&lt;/span&gt;" style="text;html=1;align=center;verticalAlign=middle;resizable=0;points=[];autosize=1;strokeColor=none;fillColor=none;" vertex="1" parent="1">
          <mxGeometry x="275" y="100" width="70" height="40" as="geometry" />
        </mxCell>
        <mxCell id="y_QdQkSx3A7HoJusCJNv-19" value="&lt;span style=&quot;font-size: 19px;&quot;&gt;Reservation&amp;nbsp;&lt;br&gt;List&lt;br&gt;&lt;/span&gt;" style="text;html=1;align=center;verticalAlign=middle;resizable=0;points=[];autosize=1;strokeColor=none;fillColor=none;" vertex="1" parent="1">
          <mxGeometry x="500" y="300" width="130" height="60" as="geometry" />
        </mxCell>
        <mxCell id="y_QdQkSx3A7HoJusCJNv-20" value="&lt;span style=&quot;font-size: 19px;&quot;&gt;Treatment &lt;br&gt;Record&lt;br&gt;&lt;/span&gt;" style="text;html=1;align=center;verticalAlign=middle;resizable=0;points=[];autosize=1;strokeColor=none;fillColor=none;" vertex="1" parent="1">
          <mxGeometry x="540" y="170" width="110" height="60" as="geometry" />
        </mxCell>
        <mxCell id="y_QdQkSx3A7HoJusCJNv-21" value="&lt;span style=&quot;font-size: 19px;&quot;&gt;Create &lt;br&gt;Patient&amp;nbsp;&amp;nbsp;&lt;br&gt;accounts&lt;br&gt;&lt;/span&gt;" style="text;html=1;align=center;verticalAlign=middle;resizable=0;points=[];autosize=1;strokeColor=none;fillColor=none;" vertex="1" parent="1">
          <mxGeometry x="275" y="380" width="100" height="80" as="geometry" />
        </mxCell>
        <mxCell id="y_QdQkSx3A7HoJusCJNv-22" value="&lt;span style=&quot;font-size: 19px;&quot;&gt;&lt;br&gt;&lt;/span&gt;" style="text;html=1;align=center;verticalAlign=middle;resizable=0;points=[];autosize=1;strokeColor=none;fillColor=none;" vertex="1" parent="1">
          <mxGeometry x="510" y="410" width="20" height="40" as="geometry" />
        </mxCell>
        <mxCell id="y_QdQkSx3A7HoJusCJNv-24" value="&lt;span style=&quot;font-size: 19px;&quot;&gt;Available&lt;br&gt;date&lt;br&gt;&lt;/span&gt;" style="text;html=1;align=center;verticalAlign=middle;resizable=0;points=[];autosize=1;strokeColor=none;fillColor=none;" vertex="1" parent="1">
          <mxGeometry x="490" y="390" width="100" height="60" as="geometry" />
        </mxCell>
      </root>
    </mxGraphModel>
  </diagram>
</mxfile>
